PathFileType	4	(X/Y/Z)	D:\TRACE\spotREDO_2-26-24\spot_Both_Motion_3_10-platform.trc
DataRate	CameraRate	NumFrames	NumMarkers	Units	OrigDataRate	OrigDataStartFrame	OrigNumFrames
100.00	100.00	      67	5	mm	100.00	5251	      7000
Frame#	Time	Left_Front			Right_Front			Left_Aft			Right_Aft			Post			
		X1	Y1	Z1	X2	Y2	Z2	X3	Y3	Z3	X4	Y4	Z4	X5	Y5	Z5	

5251	52.500	-717.37231	-13.10124	-578.17212	697.18738	-3.38870	-493.34344	-789.06818	13.27193	640.25909	780.06555	20.58802	645.45520	-23.19709	606.97559	-994.54193	
5252	52.510	-717.38440	-13.03936	-578.12811	697.21954	-3.33188	-493.34583	-788.98755	13.17353	640.23773	780.03851	20.50039	645.49811	-23.12430	607.22748	-994.32416	
5253	52.520	-717.18909	-13.05773	-578.23645	697.32538	-3.18154	-493.24915	-789.03717	13.14610	640.29846	780.11627	20.41758	645.52386	-22.80042	607.52698	-994.01147	
5254	52.530	-717.15662	-12.93229	-578.13849	697.43903	-2.99699	-493.19196	-788.95074	13.11513	640.30029	780.19165	20.38801	645.45624	-22.83154	607.57422	-994.02289	
5255	52.540	-717.10175	-12.81812	-578.05920	697.55835	-2.86873	-493.14398	-788.88574	13.07416	640.33417	780.22076	20.36303	645.53723	-22.86522	607.64508	-993.98798	
5256	52.550	-717.03198	-12.76277	-578.00897	697.71844	-2.80117	-493.07388	-788.95166	13.00910	640.32123	780.18677	20.20125	645.52399	-22.80907	607.80487	-993.72125	
5257	52.560	-716.90442	-12.66884	-577.99579	697.77277	-2.74387	-493.05899	-788.93066	12.91224	640.35742	780.23230	19.95496	645.55334	-22.88824	608.11169	-993.50891	
5258	52.570	-716.89777	-12.54352	-577.91547	697.65887	-2.44638	-493.08298	-788.84808	12.77856	640.36243	780.34344	19.80772	645.63867	-22.74464	608.28674	-993.32593	
5259	52.580	-716.73639	-12.38772	-577.92822	697.70410	-2.24785	-493.11856	-788.75684	12.64672	640.41046	780.90631	19.40656	645.73199	-22.59030	608.58301	-993.22296	
5260	52.590	-716.67102	-12.23725	-577.90643	697.77966	-2.14392	-493.08749	-788.71637	12.54730	640.46228	780.92926	19.28472	645.75555	-22.50813	608.75342	-993.22101	
5261	52.600	-716.62292	-12.03686	-577.93201	697.76923	-2.05836	-493.03998	-788.58008	12.42579	640.50458	780.84363	19.42826	645.82318	-22.43216	608.86774	-993.20093	
5262	52.610	-716.54120	-11.79942	-577.88721	697.80316	-1.90187	-493.02570	-788.66626	12.54829	640.38849	780.89941	19.33170	645.85950	-22.28881	609.10364	-993.12891	
5263	52.620	-716.46375	-11.71747	-577.85474	697.85199	-1.82933	-493.00497	-788.62622	12.45272	640.45789	780.93890	19.17285	645.89227	-22.33343	609.47766	-992.91669	
5264	52.630	-716.44409	-11.58571	-577.80841	697.87903	-1.70698	-493.02380	-788.53046	12.30626	640.48297	781.05737	18.97535	645.99969	-22.30438	609.76758	-992.73425	
5265	52.640	-716.46979	-11.40941	-577.77039	697.83624	-1.60370	-492.97806	-788.54993	12.21049	640.49127	781.02441	18.89178	645.99011	-22.38019	610.00525	-992.53473	
5266	52.650	-716.52527	-11.29318	-577.73010	697.91394	-1.55132	-492.90347	-788.53009	12.12506	640.54279	780.98822	18.72028	646.01416	-22.46070	610.25372	-992.24054	
5267	52.660	-716.56744	-11.18819	-577.71014	698.31561	-1.67526	-492.84225	-788.46143	11.99104	640.58032	781.02716	18.61254	646.03778	-22.36260	610.46399	-991.94873	
5268	52.670	-716.57214	-11.11623	-577.68134	698.15479	-1.49781	-492.77194	-788.39734	11.76060	640.64258	780.99542	18.46734	646.14349	-22.29784	610.69897	-991.69336	
5269	52.680	-716.58923	-11.04718	-577.62714	698.53748	-1.53184	-492.66849	-788.22766	11.16544	640.71979	781.01404	18.45414	646.15570	-22.08725	610.96777	-991.26794	
5270	52.690	-716.52960	-10.90898	-577.59863	698.58038	-1.47914	-492.60040	-788.13550	11.10177	640.77838	781.08423	18.38586	646.21521	-22.24482	611.22833	-991.03253	
5271	52.700	-716.48688	-10.68154	-577.51093	698.62592	-1.41776	-492.56940	-788.03583	11.07211	640.82007	781.09821	18.21775	646.23926	-22.15206	611.43835	-990.91376	
5272	52.710	-716.31702	-10.49265	-577.39832	698.32062	-1.12815	-492.63669	-787.99915	10.69416	640.94379	781.14661	18.15810	646.30078	-22.02535	611.58447	-990.73102	
5273	52.720	-716.23083	-10.39835	-577.33960	698.30316	-1.03656	-492.65927	-788.00525	10.43897	641.04071	781.20569	17.95877	646.37085	-21.99728	611.67249	-990.73212	
5274	52.730	-716.29749	-10.18707	-577.22131	698.30731	-0.99655	-492.61429	-787.98334	10.38695	641.10986	781.37292	17.58484	646.38995	-21.61863	612.00378	-990.23236	
5275	52.740	-716.21246	-10.06436	-577.15607	698.29669	-0.69857	-492.59644	-788.01013	10.14502	641.09973	781.38574	17.65133	646.52844	-21.64623	612.29956	-990.15039	
5276	52.750	-716.22424	-9.87227	-577.08282	698.41467	-0.37879	-492.46982	-788.00085	10.12832	641.10059	781.34918	17.39235	646.50134	-21.55012	612.54541	-990.09888	
5277	52.760	-716.14294	-9.71038	-577.12305	698.44012	-0.16403	-492.40677	-787.99884	10.05368	641.12140	781.45520	17.17730	646.54889	-21.55998	612.80640	-990.05273	
5278	52.770	-716.09241	-9.56034	-577.13690	698.47827	0.00701	-492.39407	-788.00031	9.93179	641.10754	781.43140	17.13112	646.58270	-21.68434	612.85529	-990.04541	
5279	52.780	-716.08893	-9.44563	-577.18152	698.55151	0.06902	-492.45721	-787.95239	10.02437	641.21277	781.41473	17.00583	646.54474	-21.83098	612.96490	-989.81696	
5280	52.790	-716.07678	-9.35501	-577.14838	698.50623	0.16140	-492.42844	-787.98102	9.86537	641.26544	781.45166	16.83813	646.57574	-22.81613	613.57513	-988.97925	
5281	52.800	-716.08301	-9.27745	-577.15643	698.56281	0.23987	-492.43512	-787.97498	9.87559	641.25854	781.36780	16.78365	646.59076	-22.84969	613.69800	-988.80170	
5282	52.810	-716.08466	-9.17556	-577.16656	698.51990	0.41347	-492.48758	-787.94019	9.84626	641.28204	781.34283	16.65288	646.62164	-22.34101	613.72144	-989.19617	
5283	52.820	-716.11169	-9.09299	-577.17267	698.59760	0.40128	-492.51450	-787.88916	9.62197	641.29541	781.41174	16.56582	646.61823	-22.39673	613.96002	-988.93182	
5284	52.830	-716.12048	-9.05075	-577.10492	698.56458	0.47110	-492.39102	-787.91486	9.55773	641.37512	781.37012	16.51914	646.66748	-22.24199	614.08801	-988.74744	
5285	52.840	-716.16040	-8.94857	-577.06921	698.58759	0.56370	-492.34244	-787.82587	9.46533	641.35437	781.44202	16.40931	646.64728	-22.06810	614.20972	-988.69647	
5286	52.850	-716.14575	-8.88555	-577.00800	698.69220	0.49816	-492.22653	-787.94586	9.16228	641.35449	781.53113	16.28685	646.74390	-22.09416	614.33228	-988.64758	
5287	52.860	-716.11633	-8.83336	-576.94739	698.75745	0.57333	-492.17426	-787.76141	9.20328	641.47369	781.44293	16.24194	646.75623	-21.97191	614.47534	-988.63220	
5288	52.870	-716.12878	-8.75894	-576.89343	698.77228	0.60830	-492.10498	-787.91852	8.97689	641.42212	781.58667	16.10490	646.70300	-22.05667	614.59271	-988.61646	
5289	52.880	-716.11719	-8.70676	-576.89410	698.76184	0.66150	-492.11493	-787.88617	8.92355	641.38348	781.58466	16.09828	646.72412	-21.96509	614.72675	-988.56476	
5290	52.890	-716.13721	-8.67616	-576.82837	698.81152	0.72944	-492.02954	-787.79474	9.07696	641.58118	781.64276	16.08342	646.76202	-22.00051	614.86096	-988.48584	
5291	52.900	-716.13055	-8.61554	-576.83032	698.80560	0.72308	-492.08493	-787.85193	8.89952	641.43738	781.65015	16.07475	646.86346	-21.91651	614.79614	-988.45886	
5292	52.910	-716.14673	-8.60909	-576.86346	698.76782	0.76794	-492.08575	-787.87122	8.89177	641.45886	781.66504	16.07897	646.88019	-22.00762	614.79272	-988.41681	
5293	52.920	-716.00439	-8.74607	-577.04462	698.79779	0.71388	-492.10254	-787.88940	8.83514	641.42627	781.77246	16.14119	646.91602	-21.97881	614.82153	-988.34668	
5294	52.930	-716.01599	-8.73298	-577.02917	698.84015	0.72413	-492.02155	-787.90106	8.88457	641.41223	781.85522	16.22448	646.92926	-21.99397	614.86395	-988.36267	
5295	52.940	-716.02258	-8.70827	-577.02844	698.75421	0.74859	-492.07831	-787.72192	9.06312	641.51025	781.92810	16.35228	647.00867	-21.96519	614.82928	-988.38947	
5296	52.950	-716.03033	-8.76602	-576.82281	698.79395	0.76639	-492.02960	-787.87793	8.91380	641.45697	781.76239	16.18740	646.95923	-21.98003	614.86084	-988.39465	
5297	52.960	-716.00482	-8.69019	-577.02869	698.83606	0.74496	-492.02051	-787.90973	8.91049	641.45105	781.80579	16.19952	646.93182	-22.01797	614.87268	-988.40137	
5298	52.970	-716.01904	-8.71586	-577.01880	698.73712	0.74961	-492.06360	-787.92975	8.88613	641.43982	781.76959	16.17357	646.93237	-22.04185	614.88641	-988.41870	
5299	52.980	-716.01947	-8.70125	-576.97070	698.78162	0.77599	-492.07574	-787.92365	8.85687	641.49432	781.79266	16.16568	646.93610	-22.02851	614.88464	-988.53827	
5300	52.990	-716.15350	-8.27558	-577.22418	698.84064	0.77733	-492.00482	-787.89758	8.87735	641.43475	781.80872	16.19200	646.93610	-22.00557	614.89984	-988.53479	
5301	53.000	-716.12952	-8.55521	-576.82837	698.81683	0.78553	-492.03741	-787.87366	8.88779	641.44824	781.80908	16.11773	646.96027	-21.94842	614.87103	-988.47791	
5302	53.010	-716.16675	-8.55209	-576.84351	698.80444	0.74525	-492.01990	-787.79944	9.03603	641.53979	781.82861	16.19818	646.96680	-22.07646	615.30792	-988.52881	
5303	53.020	-716.10095	-8.53961	-576.83057	698.78217	0.75445	-492.06870	-787.94086	8.87329	641.44427	781.87134	16.22222	646.98456	-22.10314	615.25873	-988.47461	
5304	53.030	-716.14117	-8.61347	-576.85114	698.71472	0.71139	-492.11160	-787.73743	9.15543	641.53351	781.74438	16.49906	647.11938	-22.01731	615.07660	-988.40735	
5305	53.040	-716.10638	-8.78375	-576.90558	698.77692	0.54796	-492.14517	-787.85669	9.34309	641.40320	781.89142	16.59365	647.10706	-21.96121	614.92181	-988.40118	
5306	53.050	-716.13110	-8.79529	-576.94617	698.62170	0.49475	-492.29977	-787.84961	9.06486	641.40021	781.90179	16.28911	646.89838	-21.91684	614.77600	-988.48267	
5307	53.060	-716.10040	-8.88349	-577.08899	698.62891	0.49389	-492.30612	-787.87683	9.26033	641.35992	781.30743	16.22451	646.59869	-21.94009	614.54858	-988.50317	
5308	53.070	-716.04279	-8.96564	-577.14557	698.68085	0.51375	-492.39328	-787.89319	9.38757	641.26758	781.41669	16.07361	646.44958	-21.96943	614.29297	-988.67200	
5309	53.080	-716.00873	-9.12144	-577.22241	698.68683	0.35637	-492.39221	-787.78546	9.62592	641.33319	781.51251	16.62788	646.40881	-22.14042	614.13446	-988.94220	
5310	53.090	-715.97504	-9.22106	-577.27136	698.72247	0.24964	-492.41049	-787.85382	9.89605	641.25635	781.76221	16.97201	646.50763	-22.02892	613.79877	-989.30688	
5311	53.100	-715.90417	-9.31413	-577.33905	698.75677	0.21550	-492.42654	-787.73560	9.98756	641.20691	781.81989	17.09478	646.56268	-21.81699	613.50684	-989.73132	
5312	53.110	-715.85577	-9.49615	-577.36603	698.79010	0.07593	-492.43481	-787.77301	10.11325	641.14661	781.76471	17.19090	646.56104	-21.64216	613.29840	-990.14026	
5313	53.120	-715.89899	-9.67422	-577.38397	698.96179	-0.54431	-492.41119	-787.69922	10.07248	641.03821	781.77081	17.23122	646.50604	-21.29803	612.65326	-990.06897	
5314	53.130	-715.90491	-9.82354	-577.45398	698.84821	-0.77630	-492.55338	-787.57611	10.21163	641.02295	781.60999	17.35020	646.35992	-21.25509	612.13348	-990.16998	
5315	53.140	-715.81055	-10.20342	-577.34808	698.88721	-0.96774	-492.58762	-787.54645	10.50407	640.97510	781.66785	17.53094	646.21606	-21.56659	611.80853	-990.63770	
5316	53.150	-715.83759	-10.27022	-577.33777	698.88354	-1.13460	-492.62796	-787.49274	10.85271	640.85376	781.67102	17.74697	646.15942	-21.77547	611.55786	-990.98108	
5317	53.160	-715.78436	-10.54729	-577.47266	698.83893	-1.29035	-492.68704	-787.25488	11.03575	640.81134	781.84656	18.15737	646.01715	-21.57620	611.15613	-991.31250	
